<?xml version="1.0" encoding="UTF-8"?>
<!DOCTYPE svg  PUBLIC '-//W3C//DTD SVG 1.1//EN'  'http://www.w3.org/Graphics/SVG/1.1/DTD/svg11.dtd'>
<svg width="21.5px" height="388.01px" enable-background="new 0 0 21.5 388.011" version="1.1" viewBox="0 0 21.5 388.011" xml:space="preserve" xmlns="http://www.w3.org/2000/svg">
<polygon points="16.814 0 15.631 0.947 18.971 5.122 0 5.122 0 6.637 19.043 6.637 15.613 11.289 16.833 12.188 21.5 5.858" fill="#335379"/>
<polygon points="16.814 23.489 15.631 24.436 18.971 28.61 0 28.61 0 30.125 19.043 30.125 15.613 34.778 16.833 35.677 21.5 29.347" fill="#BA2031"/>
<polygon points="16.814 46.978 15.631 47.925 18.971 52.1 0 52.1 0 53.615 19.043 53.615 15.613 58.267 16.833 59.166 21.5 52.836" fill="#C5197F"/>
<polygon points="16.814 70.467 15.631 71.414 18.971 75.588 0 75.588 0 77.104 19.043 77.104 15.613 81.756 16.833 82.655 21.5 76.325" fill="#EB8B23"/>
<polygon points="16.814 117.44 15.631 118.39 18.971 122.57 0 122.57 0 124.08 19.043 124.08 15.613 128.73 16.833 129.63 21.5 123.3" fill="#78BE20"/>
<polygon points="16.814 140.94 15.631 141.88 18.971 146.06 0 146.06 0 147.57 19.043 147.57 15.613 152.22 16.833 153.12 21.5 146.79" fill="#00B5E2"/>
<polygon points="16.814 164.42 15.631 165.37 18.971 169.54 0 169.54 0 171.06 19.043 171.06 15.613 175.71 16.833 176.61 21.5 170.28" fill="#008EAA"/>
<polygon points="16.814 187.91 15.631 188.86 18.971 193.03 0 193.03 0 194.55 19.043 194.55 15.613 199.2 16.833 200.1 21.5 193.77" fill="#652667"/>
<polygon points="16.814 211.4 15.631 212.35 18.971 216.52 0 216.52 0 218.04 19.043 218.04 15.613 222.69 16.833 223.59 21.5 217.26" fill="#C26E60"/>
<polygon points="16.814 234.89 15.631 235.84 18.971 240.01 0 240.01 0 241.53 19.043 241.53 15.613 246.18 16.833 247.08 21.5 240.75" fill="#E6A65D"/>
<polygon points="16.814 258.38 15.631 259.33 18.971 263.5 0 263.5 0 265.02 19.043 265.02 15.613 269.67 16.833 270.57 21.5 264.24" fill="#9CAF88"/>
<polygon points="16.814 281.87 15.631 282.81 18.971 286.99 0 286.99 0 288.5 19.043 288.5 15.613 293.16 16.833 294.06 21.5 287.73" fill="#00573F"/>
<polygon points="16.814 305.36 15.631 306.3 18.971 310.48 0 310.48 0 311.99 19.043 311.99 15.613 316.65 16.833 317.54 21.5 311.22" fill="#5B7F95"/>
<polygon points="16.814 328.84 15.631 329.79 18.971 333.97 0 333.97 0 335.48 19.043 335.48 15.613 340.13 16.833 341.03 21.5 334.7" fill="#B1B3B3"/>
<polygon points="16.814 352.33 15.631 353.28 18.971 357.46 0 357.46 0 358.97 19.043 358.97 15.613 363.62 16.833 364.52 21.5 358.19" fill="#ACA39A"/>
<polygon points="16.814 375.82 15.631 376.77 18.971 380.94 0 380.94 0 382.46 19.043 382.46 15.613 387.11 16.833 388.01 21.5 381.68" fill="#4F2C1D"/>
<polygon points="16.814 93.956 15.631 94.902 18.971 99.078 0 99.078 0 100.59 19.043 100.59 15.613 105.24 16.833 106.14 21.5 99.814" fill="#FFCD00"/>
</svg>
