<?xml version="1.0" encoding="UTF-8"?>
<!DOCTYPE svg  PUBLIC '-//W3C//DTD SVG 1.1//EN'  'http://www.w3.org/Graphics/SVG/1.1/DTD/svg11.dtd'>
<svg enable-background="new 0 0 125 86" version="1.1" viewBox="0 0 125 86" xml:space="preserve" xmlns="http://www.w3.org/2000/svg">
	<path d="m123.95 26.923c-0.775-2.422-7.477-16.264-8.305-17.732-0.534-0.958-1.458-1.644-2.533-1.914-1.034-0.262-25.616-6.412-48.047-6.447-6.762-8e-3 -17.013 0.498-27.45 2.976-11.709 2.774-20.829 7.364-27.115 13.639-6.68 6.672-10.067 15.122-10.067 25.124 0 10.695 5.152 21.213 14.138 28.842 10.598 9.002 26.054 13.76 44.699 13.76 21.583 0 50.099-5.17 54.542-7.197 0.854-0.387 1.551-1.066 1.972-1.912 3e-3 -2e-3 0.016-8e-3 0.019-0.016 0 0 5.01-9.908 5.646-11.113 0.635-1.203 1.865-3.773 2.503-5.801 0.637-2.033 0.857-29.536-2e-3 -32.209z" clip-rule="evenodd" fill="#C99700" fill-rule="evenodd"/>
	<g clip-rule="evenodd" fill-rule="evenodd">
		<path d="m68.258 40.833c0.076 0.08 0.156 0.153 0.232 0.23-0.076-0.077-0.156-0.15-0.232-0.23z" fill="#C2C2C2"/>
		<path d="m75.97 17.99l8.636-5.155c-8.273 1.432-18.603 5.05-18.603 5.05-20.609 0.299-30.972 7.873-35.092 11.986-4.417 6.458-3.838 12.762-3.838 12.762 0.384 17.146 10.301 24.235 18.46 27.173 2.298 0.709 4.412 1.236 6.164 1.615 2.075 0.352 3.618 0.434 4.219 0.451-3.273-2.102-4.271-4.764-3.893-7.596-0.026 0.051-0.043 0.076-0.043 0.076 0.021-0.076 0.043-0.152 0.062-0.232 0.138-0.896 0.407-1.812 0.786-2.736 0.603-1.844 1.302-3.514 2.037-5.012-0.098 0.191-0.195 0.391-0.293 0.594v4e-3c0.82-4.383 6.023-11.777 6.023-11.777l0.138-11.77c0.545-3.832 8.054-7.707 8.054-7.707l-0.863 1.138c-2e-3 3e-3 -8e-3 6e-3 -0.016 0.011 0.016-0.011 0.023-0.019 0.023-0.019-3.694 4.518-2.908 7.249-2.908 7.249 0.506 3.033 1.726 5.195 3.234 6.736 2.064 1.228 6.616 3.206 12.735 1.627 0 0 6.434-1.368 15.861-2.247l-0.58 0.188c-4.109 2.054-7.54 3.422-7.54 3.422l1.681 0.625 4.812 1.022c3.152 0.959 2.877 2.533 2.877 2.533l0.138 2.395c1.741 0.434 3.348 1.775 3.938 2.305l6.116-1.566 1.233-2.053 3.578 0.145-0.053-0.383c-0.548-1.6-1.323-6.995-2.273-8.046-4.78-5.299-11.548-10.182-11.548-10.182-1.336-0.725-2.475-1.71-3.355-2.623 0.935 2.679 1.281 4.944 1.281 4.944l-0.199-0.262s-0.59-1.705-1.979-4.722l-0.031-1.006c-0.704-0.847-1.091-1.467-1.091-1.467-3.284-3.422-12.045-7.461-12.045-7.461l-6.723 0.427 0.88-0.456zm12.902 7.604l-8.348-1.857-1.95-0.41 10.092 1.241 6.132 3.946 0.204 1.362-6.13-4.282z" fill="#ccc"/>
	</g>
	<path d="m75.978 18.009l10.126-6.071s-10.115 1.181-17.621 3.764l-1.062 0.367c-10.081 0.096-17.907 2.086-17.907 2.086-24.132 6.238-22.44 24.479-22.44 24.479 0.656 29.276 29.121 29.245 29.121 29.245 23.616 2.67 50.932-6.254 50.932-6.254l3.409-4.137c6.293-7.111 8.942-6.59 8.942-6.59 2.346 0.715 0.265 3.256-0.468 4.855-0.73 1.6-6.902 14.488-6.902 14.488-3.386 1.543-30.754 6.822-52.838 6.822-39.128 0-54.73-21.253-54.73-38.494 0-32.535 39.662-37.661 60.518-37.635 22.182 0.034 47.05 6.322 47.05 6.322l7.344 16.044s2.888 4.762-1.54 3.518l-10.785-10.856-12.568-2.639c-4.174 0.215-1.329 2.874-1.329 2.874 3.42 2.057 4.774 4.375 4.774 4.375l3.123 2.9c11.743 8.264 13.622 12.654 13.622 12.654l1.096 5.337 0.614 6.262-4.994 0.035-1.268 1.922-7.289 1.844-10.779-2.953c4.104-2.258 1.548-4.217 1.548-4.217l-7.641-2.832-10.265 3.286-7.514-1.221c-9.088 1.982-16.277 16.764-16.277 16.764 3.103-12.711 10.852-18.418 10.852-18.418l-0.648-12.311c0.648-3.276 5.748-6.778 5.748-6.778-3.694 4.518-2.908 7.249-2.908 7.249 1.853 11.09 13.244 10.55 13.244 10.55 11.909-3.491 18.007-4.245 18.007-4.245-4.109 2.054-7.54 3.422-7.54 3.422l8.255 3.072 0.577 4.113 4.558 1.713 6.172-1.584 1.233-2.053 3.578 0.145-1.099-7.732c-6.624-8.157-13.138-12.32-13.138-12.32l-2.861-2.337s-2.419-3.224-3.024-3.652c-4.092-2.908-11.053-6.41-11.053-6.41l-0.659 0.201-5.296 1.031z" clip-rule="evenodd" fill="#002855" fill-rule="evenodd"/>
	<g clip-rule="evenodd" fill="#002855" fill-rule="evenodd">
		<path d="m94.594 27.126l0.408 2.75-6.13-4.282-8.348-1.857 8.146 3.535s3.66 5.783 6.249 4.021l2.04 1.385c1e-3 -1e-3 -0.694-2.021-2.365-5.552z"/>
		<polygon points="110.57 42.318 111.26 45.944 107.22 38.809"/>
	</g>
	<path d="m53.799 48.397s4.107-4.654 4.38-10.404c0 0-8.738 4.367-17.652 12.031-2.197 1.803-2.126 0.658-1.855-0.262 5.96-8.101 17.822-22.091 30.494-24.968 0 0-2.009 11.415 13.223 12.158l13.046-0.389-7.52-4.764s-6.418-5.452-17.177-9.208c-0.895-0.519-0.542-0.929-0.407-1.048 6.347-0.088 16.502 0.847 20.979 4.332 0 0-1.35-2.569-9.454-6.333-1.442-0.646-3.882-0.662-6.243-0.463v-3e-3c-3.057 0.071-1.987-0.648-1.871-1.029l3.835-2.713-12.521 3.679c-9.612 1.328-25.18 5.399-37.304 17.759-0.905 3.409-0.678 5.859-0.678 5.859 0.175 7.755 2.297 13.456 5.333 17.646 3.419 0.736 12.841 1.273 21.392-11.88z" fill="#fff"/>
	<path d="m106.3 46.354h2.978c-0.803-2.82-2.623-7.985-8.041-11.474l-4.274-2.204 8.205 10.393-4.926-2.054-10.139 2.242c-0.529 0.223-0.922 0.387-1.146 0.477l4.129-6e-3c9.205 2.556 7.363 6.289 7.363 6.289s3.612 0.654 4.999 0.238c1.366-0.412 3.983-1.938 2.872-2.326l-6.845-0.139s3.539-1.738 4.825-1.436z" clip-rule="evenodd" fill="#fff" fill-rule="evenodd"/>
	<g fill="#fff">
		<path d="m42.543 72.415s-20.247-7.934-20.247-29.973c0-17.759 20.139-26.484 20.139-26.484s-23.378 5.872-23.378 26.353c0 24.112 23.486 30.104 23.486 30.104z"/>
		<path d="m56.47 76.397s37.299-0.703 52.816-7.812l7.426-8.893-6.206 10.113c0 1e-3 -14.49 8.198-54.036 6.592z" clip-rule="evenodd" fill-rule="evenodd"/>
		<path d="m75.536 10.651c-16.965-0.548-20.665 0.741-20.533 0.887 0 0 5.672-0.461 15.607 0.489l4.926-1.376z" clip-rule="evenodd" fill-rule="evenodd"/>
		<path d="m89.754 13.388c6.714 0.395 15.461 1.863 19.532 4.113l7.82 9.289-7.088-11.245s-5.11-2.266-17.909-3.777l-2.355 1.62z" clip-rule="evenodd" fill-rule="evenodd"/>
	</g>
	<path d="m92.823 29.733c-0.056 0.105-0.092 0.23-0.092 0.359 0 0.435 0.354 0.789 0.785 0.789 0.365 0 0.667-0.249 0.76-0.585-0.365 0.075-0.992-0.267-1.453-0.563z" clip-rule="evenodd" fill="#fff" fill-rule="evenodd"/>
</svg>
