<?xml version="1.0" encoding="UTF-8"?>
<!DOCTYPE svg  PUBLIC '-//W3C//DTD SVG 1.1//EN'  'http://www.w3.org/Graphics/SVG/1.1/DTD/svg11.dtd'>
<svg width="1500px" height="2573.4px" enable-background="new 0 0 1500 2573.388" version="1.1" viewBox="0 0 1500 2573.388" xml:space="preserve" xmlns="http://www.w3.org/2000/svg">
		<path d="m1314.8 898.78s100.55 70.732 241.57 307.74c0 0 171.47 187.02 451.9 168.84 0 0-163.66-68.23-198.73-212.45 0 0-105.48-351.69-606.2-521.21-64.982-132.3-155.93-203.58-241.25-241.66-79.588-45.546-164.6-66.605-258.01-64.169 43.369-34.064 92.35-61.218 144.66-70.692l128.32 25.604 178.29-50.052 129.41 53.282s42.678 35.171-29.262 71.429l183.28 57.191 126.22-27.12 22.927-32.119 85.748 2.403-6.649-107.7-15.563-92.226s-29.507-76.475-226.05-225.4l-51.785-51.722s-21.902-40.622-79.324-77.902c0 0 33.867-9.97 50.881-23.788l-167.24-66.353 107.59-97.017-317.22 41.178c-393-113.24-679.14 29.676-679.14 29.676 95.818-28.481 173.52-41.513 300.68-36.175 0 0 35.919 6.671 35.545 15.011-434.29 25.324-759.77 371.33-759.77 371.33l133.89-4.184c-16.655 22.937-31.598 45.428-44.822 67.307-262.11 205.94-203.76 675.84-203.76 675.84 40.408 128.5 155.6 241.15 243.02 311.87 61.961 100.15 199.92 318.96 287.35 421.62 0 0 109.73 86.023 119.58 193.16 0 0 3.641 93.515 107.3 122.79l350.56 599.05s64.209 161.9 211.68 100.7l10.607-6.413c116.88-108.78-46.307-241.16-46.307-241.16l-53.429-64.04c-78.613-48.206-90.546-85.469-90.546-85.469 28.171-69.08-33.115-119.48-33.115-119.48-65.007-51.676-230.64-287.76-230.64-287.76 16.323-106.31-64.219-157.08-64.219-157.08-93.481-53.294-129.59-180.08-129.59-180.08-3.939-15.438-15.485-36.746-31.532-61.229-2.533-24.632-2.389-55.545 9.149-78.636 76.377-13.417 119.01-49.592 119.01-49.592 6.92 1.107 13.416 1.892 19.851 2.527 4.117 41.996 26.417 134.89 137.65 229.05 0 0 46.818 55.086 40.337 145.31 0 0 7.256 128.28 179.21 96.183 0 0 51.677 27.174 85.102 22.875 34.242-4.418 36.364 10.66 64.866-4.837 0 0 98.942-71.488 15.253-243.57 0 0-70.893-90.729-135.56-33.6l-28.252 76.775-90.509-228.72s3.884-39.55-9.592-95.115c29.785 15.694 62.65 23.44 95.444 26.197 51.415 76.295 130.13 180.35 199.6 218.86 0 0 88.162 161.02 95.96 247.18 0 0 8.886 148.26 112.86 176.24 0 0 23.129 186.28 163.35 191.74 0 0 124.2-21.495 20.073-218.87 0 0-38.692-28.84-80.221-41.131 0 0 1.812-78.859-59.049-139.42 0 0-134.85-208.06-147.14-266.65 0 0 9.105-101.79-80.213-239.04l1.34-3.541c29.689 12.146 61.881 21.553 96.633 27.141 18.328 43.604 34.455 90.394 37.686 125.06 0 0 8.694 148.3 112.83 176.36 0 0 23.118 186.26 163.33 191.76 0 0 124.16-21.578 20.039-219.05 0 0-38.741-28.747-80.19-41.061 0 0 1.84-78.772-59.097-139.37 0 0-91.474-141.21-130.62-223.61 0.198-0.094 0.383-0.172 0.577-0.141-7.142-17.236-12.504-32.883-16.927-47.645 0.463-14.674-0.82-63.084-26.966-130.88-0.705-3.5-1.577-6.805-2.342-10.364l10.203-26.05 59.488 96.294z" clip-rule="evenodd" fill="none" fill-rule="evenodd" stroke="#CDD5E0" stroke-miterlimit="10"/>
		<g clip-rule="evenodd" fill="none" fill-rule="evenodd" stroke="#CDD5E0" stroke-miterlimit="10">
			<path d="m1534 350.74l22.467-34.538 58.108 4.547c-8.522-25.182-18.321-122.56-34.227-141.78-78.716-94.266-191.85-182.78-191.85-182.78-17.336-10.257-32.596-23.122-45.292-35.974 11.92 42.258 14.322 70.063 14.322 70.063l-0.157-0.181c-0.117-0.61-10.764-35.477-37.141-96.519l0.078 0.489-0.146-0.577c-16.242-19.756-20.603-29.1-20.603-29.1-54.277-61.045-202.19-136.29-202.19-136.29l-108.53 1.691 19.181-8.491 139.58-80.287c-142.2 19.204-301.18 74.831-301.18 74.831-223.08-5.537-386.81 38.785-498.78 88.391-178.88 92.221-299.82 224.86-295.44 220.09-45.263 49.686-83.223 97.966-113.18 139.25-103.69 175.37-202.62 421.27-88.026 600.01 0 0 321.92 277.78 488.81 295.65 0 0 30.428-4.15 35.536-36.039 0 0 87.821 46.755 130.48-14.834 0 0 201.65-328.09 106.86-480.17l-46.236-85.871c-2.172 3.15-4.383 6.226-6.539 9.145-9.083 29.911-32.447 97.98-58.518 100.69l-7.564-9.982c-0.126-0.284-0.134-0.588-0.316-0.84 0.102 0.121 0.11 0.172 0.167 0.358-0.057-0.186-0.111-0.286-0.205-0.545-0.629-1.999-1.359-4.121-1.921-6.188-8.032-25.926-23.146-86.897 58.175-170.36 0 0 35.568-111.91 160.32-178.34 2.637-3.516 4.057-5.45 4.057-5.45l8.479-166.9c-60.294 34.982-256.46 149.9-323.54 203.12 49.533-43.601 193.45-165.2 324.69-226.54l0.759-11.925c11.941-65.576 146.47-120.38 146.47-120.38s-7.861 5.657-14.904 11.041c-66.199 75.282-54.383 122.46-54.383 122.46 7.689 59.03 31.69 99.789 61.189 127.68 39.228 21.955 110.11 48.315 203.89 28.085 0 0 102.82-17.678 248.89-26.2 12.241-1.543 18.491-2.109 18.491-2.109-67.675 15.155-124.28 54.364-124.28 54.364l24.197 10.237 81.565 20.791c53.411 18.488 47.684 45.405 47.684 45.405l0.659 41.209c29.619 8.616 56.235 32.612 66.081 42.265l103.94-22.672z"/>
			<path d="m1363.3 289.94s5.728-26.917-47.684-45.405l-81.565-20.791 116.65 49.807-0.816 68.429 77.172 32.109 2.979-0.677c-9.846-9.652-36.462-33.648-66.081-42.265l-0.659-41.207z"/>
		</g>
		<path d="m1166.8-29.861s-112.93-98.469-326.59-146.07c104.21-17.481 331.99 11.212 417.68 82.966 0 0-21.523-44.911-158.32-114.46-58.505-28.762-218.16 1.2-218.16 1.2l100.92-59.931-170.77 39.209c-178.93 18.244-478.74 86.899-701.44 332.76 0 0-6.177 174.02 116.66 310.59 49.235 94.516 100.79 237.05 51.505 360.35 0 0 221.1-369.47 246.38-408.38 25.248-38.938 53.453-70.697 75.564-98.181 22.224-27.556 73.312-77.339 81.601-175.7 0 0-274.53 131.17-461.17 314.9 0 0 345.2-475.28 657.87-534.63 0 0-50.549 211.09 210.48 233.24l213.62-21.748-135.81-116.12z" clip-rule="evenodd" fill="none" fill-rule="evenodd" stroke="#CDD5E0" stroke-miterlimit="10"/>
		<path d="m525.4 927.91s-112.18 232.97-160.65 1.722c0 0-9.168-209.32 109.91-307.82 0 0 37.902 53.048 73.788-15.647-1e-3 0 55.38 99.04-23.056 321.75z" clip-rule="evenodd" fill="none" fill-rule="evenodd" stroke="#CDD5E0"/>
		<path d="m108.36 1130.6s230.96 120.22 317.6 348.38c0 0 30.128 84.166 64.343 93.566 0 0 95.131 50.987 71.908 146.4 0 0-49.094 83.463-108.77 34.313 0 0-29.372-163.55-69.604-209.58-1e-3 1e-3 -198.52-174.64-275.47-413.08z" clip-rule="evenodd" fill="none" fill-rule="evenodd" stroke="#CDD5E0"/>
		<path d="m178.45 1189.3s95.381 98.609 208.98 307.26c1e-3 0-185.74-105.08-208.98-307.26z" clip-rule="evenodd" fill="none" fill-rule="evenodd" stroke="#CDD5E0"/>
		<path d="m610.64 1937.2s125.37 234.31 173.82 253.96c0 0 56.701 92.451 54.312 131.72 0 0 37.364 141.19 123.8 147.11 0 0 132.1-6.694 16.167-175.97 0 0-89.733-86.138-135.84-145.02 0 0 31.84-50.567-38.159-109.3l-123.08-99.022c0-2e-3 -58.479-57.032-71.024-3.477z" clip-rule="evenodd" fill="none" fill-rule="evenodd" stroke="#CDD5E0"/>
		<path d="m659.37 1980.6s75.414 198.53 152.03 190.98c0 0 23.782-23.909-30.207-84.217-1e-3 0-59.737-73.052-121.83-106.77z" clip-rule="evenodd" fill="none" fill-rule="evenodd" stroke="#CDD5E0"/>
		<path d="m811.81 2220.9s49.261 238.07 142.67 225.25c0 0 53.327-35.17-7.71-100.56 0 0-116.66-89.961-134.96-124.7z" clip-rule="evenodd" fill="none" fill-rule="evenodd" stroke="#CDD5E0"/>
		<path d="m549.97 1157.6s120.41 233.48 202.52 266.49l32.308 120.2s66.11-64.811 15.544-195.86c0 0-137.84-224.53-250.37-190.83z" clip-rule="evenodd" fill="none" fill-rule="evenodd" stroke="#CDD5E0"/>
		<path d="m256.19 817.54c-21.467-54.375-77.38-167.56-99.339-197.35-37.47-50.847-60.52-73.779-76.118-85.339-15.63-11.753-79.584-59.077-102.58-85.26-61.076-69.631-52.447-120.63-49.677-131.38l-1.217 2.378c-97.252 210.66-30.06 442.78-30.06 442.78 10.353-188.82 93.094-258.8 93.094-258.8-81.784 193.38 2.634 305.83 2.634 305.83 124.48 214.4 136.41 65.689 136.41 65.689 139.99 216.68 164.8 161.17 164.8 161.17 16.155-59.53-10.883-150.76-37.946-219.7z" clip-rule="evenodd" fill="none" fill-rule="evenodd" stroke="#CDD5E0"/>
			<path d="m1022.5 220.83c156.57-39.868 254.72-54.683 293.18-59.582-146.07 8.521-248.89 26.2-248.89 26.2-93.774 20.23-164.66-6.13-203.89-28.085 66.02 62.499 159.6 61.467 159.6 61.467z" clip-rule="evenodd" fill="none" fill-rule="evenodd" stroke="#CDD5E0" stroke-miterlimit="10"/>
</svg>
