<?xml version="1.0" encoding="utf-8"?>
<!-- Generator: Adobe Illustrator 16.0.0, SVG Export Plug-In . SVG Version: 6.00 Build 0)  -->
<!DOCTYPE svg PUBLIC "-//W3C//DTD SVG 1.1//EN" "http://www.w3.org/Graphics/SVG/1.1/DTD/svg11.dtd">
<svg version="1.1" id="Layer_1" xmlns="http://www.w3.org/2000/svg" xmlns:xlink="http://www.w3.org/1999/xlink" x="0px" y="0px"
	 width="751px" height="150px" viewBox="0 0 751 150" enable-background="new 0 0 751 150" xml:space="preserve">
<g>
	<path fill="#D8DFE7" d="M74.988,8.56c-37.563,0-68.013,30.45-68.013,68.012s30.45,68.013,68.013,68.013s68.01-30.449,68.01-68.013
		C142.998,39.01,112.551,8.56,74.988,8.56z M74.988,135.499c-32.547,0-58.932-26.381-58.932-58.929
		c0-32.544,26.385-58.927,58.932-58.927c32.542,0,58.925,26.383,58.925,58.927C133.913,109.118,107.53,135.499,74.988,135.499z"/>
	<circle fill="#1B75BB" cx="75.002" cy="73.155" r="66.357"/>
	<path fill="#FFFFFF" d="M74.988,5C37.424,5,6.975,35.449,6.975,73.012s30.45,68.011,68.013,68.011s68.01-30.448,68.01-68.011
		S112.551,5,74.988,5z M74.988,131.938c-32.547,0-58.932-26.379-58.932-58.927c0-32.546,26.385-58.928,58.932-58.928
		c32.542,0,58.925,26.382,58.925,58.928C133.913,105.559,107.53,131.938,74.988,131.938z"/>
	<path fill="#FFFFFF" d="M65.784,105.426v-29.54h-9.427v-12.57h9.427v-9.425c0,0,0.633-13.829,12.574-13.829
		c11.94,0,11.94,0,11.94,0v11.94h-8.172c0,0-4.4,1.257-4.4,3.769c0,2.52,0,7.544,0,7.544h12.572v12.569H77.101v29.54H65.784V105.426
		z"/>
</g>
<g>
	<path fill="#D8DFE7" d="M224.8,9.199c-37.564,0-68.014,30.45-68.014,68.012c0,37.562,30.45,68.014,68.014,68.014
		c37.562,0,68.011-30.449,68.011-68.014C292.811,39.649,262.362,9.199,224.8,9.199z M224.8,136.139
		c-32.547,0-58.931-26.382-58.931-58.929c0-32.545,26.384-58.928,58.931-58.928c32.543,0,58.926,26.383,58.926,58.928
		C283.726,109.757,257.343,136.139,224.8,136.139z"/>
	<circle fill="#26A9E0" cx="224.814" cy="73.794" r="66.357"/>
	<path fill="#FFFFFF" d="M224.8,5.639c-37.564,0-68.014,30.449-68.014,68.012s30.45,68.012,68.014,68.012
		c37.562,0,68.011-30.449,68.011-68.012S262.362,5.639,224.8,5.639z M224.8,132.578c-32.547,0-58.931-26.38-58.931-58.927
		c0-32.546,26.384-58.928,58.931-58.928c32.543,0,58.926,26.382,58.926,58.928C283.726,106.198,257.343,132.578,224.8,132.578z"/>
	<path fill="#FFFFFF" d="M246.796,55.61c0,0-7.479-9.523-14.966-4.763c-7.485,4.763-6.125,15.65-6.125,15.65
		s-13.61-3.373-18.368-8.493c-4.767-5.11-7.577-6.961-5.901,2.145c1.785,9.652,4.535,9.521,4.535,9.521l-9.978,0.458
		c0,0,13.611,8.845,16.333,9.526c2.719,0.681-6.806-2.043-8.165,2.718c-1.366,4.771,7.934,6.579,13.381,6.579
		c5.442,0-11.12,5.441-17.803,6.804c0,0,55.226,12.248,47.057-33.34l6.808-1.358l-4.086-3.174l4.086-3.631L246.796,55.61z"/>
</g>
<g>
	<path fill="#D8DFE7" d="M374.749,8.758c-37.564,0-68.014,30.45-68.014,68.012c0,37.563,30.449,68.014,68.014,68.014
		c37.562,0,68.01-30.449,68.01-68.014C442.759,39.208,412.311,8.758,374.749,8.758z M374.749,135.697
		c-32.549,0-58.932-26.381-58.932-58.928c0-32.545,26.383-58.929,58.932-58.929c32.542,0,58.924,26.383,58.924,58.929
		C433.673,109.316,407.291,135.697,374.749,135.697z"/>
	<radialGradient id="SVGID_1_" cx="331.5845" cy="140.1328" r="137.5529" gradientUnits="userSpaceOnUse">
		<stop  offset="0.1174" style="stop-color:#FFE794"/>
		<stop  offset="0.284" style="stop-color:#FFB664"/>
		<stop  offset="0.4667" style="stop-color:#FF8A39"/>
		<stop  offset="0.6809" style="stop-color:#F84F7F"/>
		<stop  offset="1" style="stop-color:#5149D7"/>
	</radialGradient>
	<circle fill="url(#SVGID_1_)" cx="374.762" cy="73.354" r="66.358"/>
	<path fill="#FFFFFF" d="M374.749,5.198c-37.564,0-68.014,30.449-68.014,68.012c0,37.563,30.449,68.013,68.014,68.013
		c37.562,0,68.01-30.449,68.01-68.013C442.759,35.647,412.311,5.198,374.749,5.198z M374.749,132.137
		c-32.549,0-58.932-26.38-58.932-58.927c0-32.546,26.383-58.928,58.932-58.928c32.542,0,58.924,26.382,58.924,58.928
		C433.673,105.757,407.291,132.137,374.749,132.137z"/>
	<g>
		<path fill="#FFFFFF" d="M375.021,58.826c-8.096,0-14.66,6.563-14.66,14.661c0,8.096,6.564,14.66,14.66,14.66
			c8.098,0,14.66-6.564,14.66-14.66C389.682,65.389,383.119,58.826,375.021,58.826z M375.021,83.117
			c-5.318,0-9.631-4.312-9.631-9.631s4.313-9.631,9.631-9.631c5.319,0,9.633,4.312,9.633,9.631S380.341,83.117,375.021,83.117z"/>
		<g>
			<path fill="#FFFFFF" d="M387.148,102.228c-0.175,0-0.304-0.004-0.383-0.006h-23.728c-0.863,0.03-7.419,0.109-12.143-4.368
				c-3.127-2.961-4.711-7.145-4.711-12.434V62.676c-0.077-1.082-0.323-7.518,4.065-12.354c3.149-3.47,7.809-5.23,13.845-5.23h21.616
				c6.037,0,10.697,1.76,13.845,5.23c4.39,4.835,4.143,11.271,4.065,12.354V85.42c0,5.289-1.585,9.473-4.712,12.434
				C394.623,101.914,388.832,102.228,387.148,102.228z M362.916,97.085l24.039,0.004c0.043,0.002,5.121,0.191,8.448-2.991
				c2.044-1.952,3.081-4.873,3.081-8.678V62.452l0.011-0.124c0.005-0.04,0.408-5.115-2.772-8.586
				c-2.137-2.332-5.506-3.514-10.014-3.514h-21.616c-4.507,0-7.875,1.182-10.013,3.514c-3.18,3.471-2.776,8.546-2.772,8.598
				l0.013,0.124l-0.002,0.113V85.42c0,3.822,1.045,6.751,3.108,8.706c3.319,3.146,8.37,2.965,8.42,2.963L362.916,97.085z"/>
		</g>
		<circle fill="#FFFFFF" cx="390.311" cy="58.168" r="3.676"/>
	</g>
</g>
<g>
	<path fill="#D8DFE7" d="M524.993,8.318c-37.563,0-68.013,30.45-68.013,68.013c0,37.563,30.448,68.012,68.013,68.012
		c37.562,0,68.011-30.448,68.011-68.012C593.004,38.768,562.556,8.318,524.993,8.318z M524.993,135.257
		c-32.547,0-58.933-26.381-58.933-58.927c0-32.547,26.386-58.929,58.933-58.929c32.542,0,58.926,26.382,58.926,58.929
		C583.919,108.876,557.535,135.257,524.993,135.257z"/>
	<circle fill="#B92031" cx="525.007" cy="72.914" r="66.357"/>
	<path fill="#FFFFFF" d="M543.587,52.015h-39.914c-5.646,0-10.225,4.575-10.225,10.222v21.908c0,5.646,4.578,10.225,10.225,10.225
		h39.914c5.648,0,10.224-4.578,10.224-10.225V62.237C553.811,56.59,549.235,52.015,543.587,52.015z M515.731,85.256l-0.196-24.128
		L536.384,72.5L515.731,85.256z"/>
	<path fill="#FFFFFF" d="M524.993,4.758c-37.563,0-68.013,30.45-68.013,68.012s30.448,68.013,68.013,68.013
		c37.562,0,68.011-30.45,68.011-68.013S562.556,4.758,524.993,4.758z M524.993,131.697c-32.547,0-58.933-26.381-58.933-58.927
		c0-32.546,26.386-58.928,58.933-58.928c32.542,0,58.926,26.382,58.926,58.928C583.919,105.316,557.535,131.697,524.993,131.697z"/>
</g>
<g>
	<path fill="#D8DFE7" d="M674.989,9.098c-37.564,0-68.016,30.449-68.016,68.011c0,37.563,30.45,68.014,68.016,68.014
		c37.562,0,68.01-30.45,68.01-68.014C742.999,39.547,712.551,9.098,674.989,9.098z M674.989,136.037
		c-32.548,0-58.934-26.38-58.934-58.928c0-32.545,26.386-58.927,58.934-58.927c32.541,0,58.923,26.382,58.923,58.927
		C733.912,109.657,707.53,136.037,674.989,136.037z"/>
	<circle fill="#EC1C24" cx="675.003" cy="73.694" r="66.357"/>
	<path fill="#FFFFFF" d="M674.989,5.538c-37.564,0-68.016,30.45-68.016,68.013c0,37.563,30.45,68.012,68.016,68.012
		c37.562,0,68.01-30.448,68.01-68.012C742.999,35.988,712.551,5.538,674.989,5.538z M674.989,132.477
		c-32.548,0-58.934-26.379-58.934-58.927c0-32.547,26.386-58.929,58.934-58.929c32.541,0,58.923,26.382,58.923,58.929
		C733.912,106.098,707.53,132.477,674.989,132.477z"/>
	<g>
		<path fill="#FFFFFF" d="M672.604,73.099c5.229-3.763,6.497-11.669,1.674-16.305c0,0-0.206-2.928,5.223-4.181
			c0,0-30.223-4.313-27.591,13.38c0,0,1.845,6.304,8.78,7.94c9.844,2.32-4.183,7.525-6.274,9.2
			c-2.087,1.672-5.851,4.941-5.015,9.366c0.833,4.433,7.521,8.19,17.138,6.937c9.616-1.256,15.051-8.777,11.296-15.05
			C674.064,78.118,667.385,76.861,672.604,73.099z M661.104,56.785c5.021-3.345,9.18,5.025,9.18,5.025s2.318,11.289-4.582,10.447
			C658.802,71.416,656.087,60.134,661.104,56.785z M664.391,95.668c-6.328,0.415-9.977-5.434-5.861-9.617
			c4.109-4.183,8.009-5.016,8.009-5.016s5.854,2.51,7.739,7.324C676.153,93.182,670.718,95.249,664.391,95.668z"/>
		<rect x="689.942" y="53.053" fill="#FFFFFF" width="2.383" height="20.771"/>
		<rect x="681.175" y="62.335" fill="#FFFFFF" width="19.55" height="2.198"/>
	</g>
</g>
</svg>
