<?xml version="1.0" encoding="UTF-8"?>
<!DOCTYPE svg  PUBLIC '-//W3C//DTD SVG 1.1//EN'  'http://www.w3.org/Graphics/SVG/1.1/DTD/svg11.dtd'>
<svg enable-background="new 0 0 20.134 20.037" version="1.1" viewBox="0 0 20.134 20.037" xml:space="preserve" xmlns="http://www.w3.org/2000/svg">
<path d="m0 7.701c-4e-3 4.256 3.445 7.707 7.698 7.711 4.256 2e-3 7.709-3.444 7.709-7.701 5e-3 -4.256-3.439-7.71-7.696-7.711-4.255-5e-3 -7.707 3.445-7.711 7.701m12.746 8e-3c-4e-3 2.783-2.264 5.037-5.047 5.036-2.779-4e-3 -5.033-2.261-5.033-5.044 3e-3 -2.781 2.26-5.037 5.043-5.034 2.783 1e-3 5.037 2.26 5.037 5.042" fill="#172A53"/>
<rect transform="matrix(.7073 -.7069 .7069 .7073 -6.5641 15.982)" x="14.774" y="11.339" width="2.488" height="9.159" fill="#172A53"/>
</svg>
