<?xml version="1.0" encoding="UTF-8"?>
<!DOCTYPE svg  PUBLIC '-//W3C//DTD SVG 1.1//EN'  'http://www.w3.org/Graphics/SVG/1.1/DTD/svg11.dtd'>
<svg enable-background="new 0 0 594 71" version="1.1" viewBox="0 0 594 71" xml:space="preserve" xmlns="http://www.w3.org/2000/svg">
	<polygon points="67.85 56.801 49.731 47.023 32.15 56.801 32.15 16.408 67.85 16.408" fill="#172A53"/>
	<path d="m177.54 31.803l2.386 21.745-5.287 6.496-0.473-25.742-0.641-0.303-5.095 2.854 1.502 9.501-20.034 12.753-20.587-12.753c0.258-2.858 0.858-6.388 1.497-9.618l-13.598-7.926 32.13-17.647 33.454 17.647-5.313 2.974 0.059 0.019z" fill="#018DA9"/>
		<path d="m260.98 24.382c-2.399-1.62-4.979-2.88-7.439-3.54v9.12c9.119 2.459 13.02 6.12 13.02 12.839v0.12c0 6.72-5.16 11.039-12.72 11.819v5.939h-6.24v-6.06c-5.159-0.66-10.199-2.7-14.159-5.699l4.68-6.84c3.24 2.46 6.24 4.14 9.78 4.859v-9.539c-8.64-2.34-12.899-5.58-12.899-12.72v-0.12c0-6.6 5.039-10.979 12.599-11.76v-3.478h6.24v3.66c4.26 0.54 7.859 2.1 11.159 4.38l-4.021 7.02zm-13.079 4.079v-8.16c-2.94 0.36-4.141 1.8-4.141 3.72v0.12c1e-3 1.921 0.842 3.121 4.141 4.32zm5.64 10.38v8.399c2.819-0.42 4.26-1.68 4.26-3.84v-0.119c0-1.98-1.021-3.24-4.26-4.44z" fill="#78BD43"/>
<g fill="#EB8B23">
	<ellipse cx="462.66" cy="18.435" rx="4.41" ry="4.367"/>
	<ellipse cx="442.61" cy="9.333" rx="4.785" ry="4.736"/>
	<path d="m471.44 41.633l-6.221-4.021-1.051-0.669 3.445 13.014-1.912 0.384 3.611 15.693-2.369 0.097-5.166-14.737-3.158-0.191-6.412 14.067-2.49-1.141 4.689-13.788-1.627-0.384 2.777-8.709-3.734-7.273-5.582-2.391-1.883-1.916-2.584 9.079 3.639 12.358v15.503h-3.922l-0.77-14.164-2.486-4.307-2.029 5.934-8.115 12.537-2.775-2.01 6.029-12.059-0.096-12.154 1.244-2.967-4.881-9.666 6.697-11.579 4.5-2.107c1.338 1.148 3.445 1.15 3.445 1.15 0.668 1.627 2.775 3.159 2.775 3.159l2.389 10.144 5.457 2.583 2.105-5.55 4.783-2.488c1.533 1.052 3.445 0.86 3.445 0.86l2.682 3.254 2.01 8.517 4.783 4.642-1.242 1.296z"/>
</g>
<polygon points="549.49 54.92 539.01 54.92 528.32 37.864 537.77 34.987 544.35 44.439 563.02 16.286 571.68 21.424" fill="#C4197F"/>
<g fill="#DEB209">
	<path d="m361.55 17.329v-5.626h-2.34v5.626h-8.038v-5.626h-2.342v5.626h-8.037v-5.626h-2.341v5.626h-11.171v41.279h45.44v-41.279h-11.171zm7.04 37.521h-37.178v-27.255h37.178v27.255z"/>
	<path d="m343.4 44.833c-1.394 0-2.509-0.622-3.581-1.716l-2.637 2.616c1.479 1.607 3.495 2.658 6.389 2.658 3.345 0 5.789-1.951 5.789-4.995v-0.043c0-2.573-1.737-3.752-3.881-4.224l3.58-3.087v-2.959h-10.826v3.366h5.724l-3.43 3.108 0.579 2.165h1.758c1.586 0 2.443 0.579 2.443 1.544v0.043c0 0.923-0.729 1.524-1.907 1.524z"/>
	<polygon points="354.89 36.836 354.89 48.091 358.98 48.091 358.98 32.977 355.96 32.977 351.56 34.221 352.36 37.437"/>
</g>
</svg>
