<?xml version="1.0" encoding="UTF-8"?>
<!DOCTYPE svg  PUBLIC '-//W3C//DTD SVG 1.1//EN'  'http://www.w3.org/Graphics/SVG/1.1/DTD/svg11.dtd'>
<svg enable-background="new 0 0 100 16.157" version="1.1" viewBox="0 0 100 16.157" xml:space="preserve" xmlns="http://www.w3.org/2000/svg">
<g fill="#fff">
	<path d="m58.865 4.877c0.101 0.661 1.101 5.405 1.101 5.405h-2.195l1.094-5.405zm-8.328 11.03h5.806l0.438-1.948h4.144l0.553 1.948h5.806l-5.438-15.504h-6.087l-5.222 15.504z"/>
	<path d="m36.284 0.402h5.624c5.107 0 9.007 2.277 9.007 7.974 0 4.591-3.18 7.529-7.645 7.529l-6.986-9e-3v-15.494zm5.524 11.052h0.376c1.843 0 3.207-1.073 3.207-3.096 0-2.179-1.21-3.395-3.234-3.395h-0.349v6.491z"/>
	<path d="m32.941 0.888l0.296 2.545c0.071 0.604 0.426 2.052-0.011 1.858-0.276-0.121-0.502-0.776-0.726-1.36-0.114-0.295-0.658-1.695-0.801-1.799-0.685-0.501-2.401-1.064-3.561-1.069-3.521-0.013-5.847 2.509-5.847 6.982 0 3.208 1.582 7.061 5.607 7.061 1.441 0 4.201-0.444 4.952-2.435 0.339-0.901 0.65-1.704 0.876-1.459 0.166 0.176-0.05 0.899-0.15 1.288-0.474 1.847-0.501 2.406-0.65 2.479-1.818 0.885-4.15 1.177-6.191 1.177-6.485 0-8.726-3.677-8.726-7.353 0-6.379 4.032-9.021 10.286-8.791 1.58 0.058 3.163 0.334 4.646 0.876"/>
	<path d="m13.784 1.171l-1.039-0.352c-0.35-0.306 0.075-0.391 0.075-0.391s1.5 0.271 5.24-0.036c0 0 0.328 0.062 0.103 0.319l-1.228 0.511c-0.798 0.338-0.798 0.143-0.798 0.994l-7e-3 7.901c0 6.179-6.47 6.04-7.73 6.04-0.6 0-6.488 0-6.488-4.961v-8.362c0-1.46 0.159-1.419-0.338-1.591l-1.503-0.548s-0.254-0.348 0.198-0.327c1.227 0.06 3.004 0.316 7.133 0.024 0 0 0.362 0.085 0.125 0.342l-1.201 0.339c-0.95 0.414-0.825 0.098-0.849 1.045l0.028 8.247c0 2.022 1.07 4.525 4.395 4.525 4.585 0 4.627-3.854 4.627-4.71l9e-3 -8.167c0.049-0.77-0.052-0.551-0.752-0.842"/>
	<path d="m87.65 14.716l1.6-4.112 0.281 0.231c0.982 0.78 2.317 1.443 3.575 1.47 1.126 0.023 1.675-0.268 1.527-1.191-0.114-0.694-0.916-0.813-1.417-0.911l-1.102-0.213c-2.143-0.389-3.942-1.672-3.942-4.103 0-3.677 3.262-5.737 6.544-5.737 1.725 0 3.305 0.424 4.786 1.36l-1.391 3.646c-0.762-0.533-1.917-1.285-3.376-1.337-0.483-0.018-1.581 0.229-1.23 1.312 0.152 0.462 0.833 0.657 1.252 0.755l1.241 0.292c2.324 0.526 4.002 1.81 4.002 4.432 0 3.699-3.281 5.529-6.542 5.529-1.902 0-4.106-0.527-5.808-1.423"/>
	<rect x="80.979" y=".403" width="5.491" height="15.504"/>
	<polygon points="74.683 0.402 80.404 0.402 74.56 15.905 69.917 15.905 64.09 0.402 69.794 0.402 72.237 9.757"/>
</g>
</svg>
