<?xml version="1.0" encoding="UTF-8"?>
<!DOCTYPE svg  PUBLIC '-//W3C//DTD SVG 1.1//EN'  'http://www.w3.org/Graphics/SVG/1.1/DTD/svg11.dtd'>
<svg enable-background="new 0 0 100 100" version="1.1" viewBox="0 0 100 100" xml:space="preserve" xmlns="http://www.w3.org/2000/svg">
<path d="m50.197 0.67c-27.244 0-49.33 22.086-49.33 49.33 0 27.243 22.086 49.33 49.331 49.33 27.243 0 49.33-22.087 49.33-49.33-1e-3 -27.244-22.088-49.33-49.331-49.33zm0 91.856c-23.487 0-42.527-19.041-42.527-42.526 0-23.486 19.04-42.526 42.527-42.526 23.485 0 42.526 19.04 42.526 42.526 1e-3 23.485-19.04 42.526-42.526 42.526z" fill="#fff"/>
<polygon points="47.619 73.602 70.318 49.356 46.544 26.398 42.376 30.715 58.844 46.618 29.682 46.618 29.682 52.618 59.056 52.618 43.232 69.508" fill="#fff"/>
</svg>
