<?xml version="1.0" encoding="UTF-8"?>
<!DOCTYPE svg  PUBLIC '-//W3C//DTD SVG 1.1//EN'  'http://www.w3.org/Graphics/SVG/1.1/DTD/svg11.dtd'>
<svg width="75px" height="914.12px" enable-background="new 0 0 75 914.125" version="1.1" viewBox="0 0 75 914.125" xml:space="preserve" xmlns="http://www.w3.org/2000/svg">
<path d="m12.394 271.94l0.448 2e-3s-0.232 7.424-5.046 12.236c-4.814 4.816-12.235 5.045-12.235 5.045l-0.227-17.166h-4e-3l2e-3 -0.117-2e-3 -0.119h4e-3l0.227-17.166s7.421 0.229 12.235 5.047c4.813 4.811 5.046 12.234 5.046 12.234l-0.448 4e-3zm-17.066-28.189s10.259-1.444 20.061 8.356c9.802 9.803 8.357 20.062 8.357 20.062l9.023-0.209s0.72-14.873-10.875-26.468c-11.598-11.595-26.477-10.882-26.477-10.882l-0.089 9.141m0.115-20.532s19.604-0.581 34.451 14.268c14.848 14.85 14.152 34.335 14.152 34.335l9.627-0.114s2.086-22.042-16.937-41.063c-19.023-19.025-41.06-17.403-41.06-17.403l-0.233 9.977" fill="#DEB209"/>
<path d="m38.518 127.12l-8.021-13.963s-1.746-1.738-3.193-1.654c-1.447 0.085-2.754 0.087-4.354 3.81-1.604 3.726-8.639 20.109-21.712 27.621s-17.288 9.935-17.288 9.935-5.01 3.646-2.068 8.77c2.945 5.123 4.318 7.513 4.318 7.513s3.411 3.657 7.347 1.397c3.937-2.262 5.061-2.908 5.061-2.908s2.418 11.689 14.237 18.92c0 0 11.223 0.658 13.249-9.482 0 0-9.49 0.406-10.07-7.113 0 0-7.688-2.967-1.655-10.688 0 0 13.254-7.197 35.062-3.088 0 0 4.215-2.422 2.094-6.439-2.121-4.015-8.002-13.924-8.002-13.924s4.521-2.213 1.938-6.712c-2.586-4.499-6.943-1.995-6.943-1.995m7.839 23.727c-18.73-3.632-33.73 3.453-33.73 3.453l-5.314-9.25c15.714-13.33 19.947-27.438 19.947-27.438l19.097 33.235z" fill="#EC8C22"/>
<path d="m27.555 89.679l-34.739-16.128c-0.494-0.23-3.047-1.626-4.744-6.588-1.968-5.75 4.026-10.68 4.717-11.225l27.285-22.12 8.793-18.94-2.473-1.146c-1.318-0.612-1.89-2.177-1.278-3.495s2.177-1.891 3.495-1.279l7.247 3.365-11.524 24.815-28.258 22.912c-1.266 1.01-3.633 3.633-3.025 5.409 0.878 2.566 1.905 3.429 2.098 3.572l33.771 15.68c0.781 0.013 2.203-0.095 3.174-0.702 1.814-1.133 2.882-2.347 2.966-5.201 0.119-3.966-0.577-36.029-0.583-36.353l-0.014-0.611 11.521-24.82 7.229 3.357c1.317 0.612 1.892 2.176 1.278 3.494-0.612 1.318-2.178 1.891-3.494 1.279l-2.459-1.142-8.792 18.94c0.101 4.613 0.687 32.176 0.569 36.011-0.166 5.583-3.185 8.103-5.438 9.511-2.904 1.812-6.492 1.493-6.892 1.451l-0.43-0.046zm4.686-11.556s-0.168 2.483-1.504 3.24c-1.337 0.758-2.233 0.145-2.233 0.145l-30.777-14.289s-1.146-0.926-1.504-2.273c-0.359-1.348 1.354-2.916 1.354-2.916l19.132-15.336 15.063 6.994 0.469 24.435m-24.179-11.665c1.873 0.871 4.101 0.056 4.97-1.819 0.871-1.875 0.058-4.1-1.818-4.971-1.874-0.87-4.101-0.056-4.971 1.819s-0.056 4.101 1.819 4.971m11.565-1.158c3.023 1.404 6.613 0.091 8.019-2.934 1.403-3.025 0.092-6.615-2.934-8.019-3.025-1.404-6.615-0.092-8.019 2.934-1.405 3.024-0.091 6.615 2.934 8.019" fill="#78BE43"/>
<path d="m44.188 325.56s-10.493-13.361-20.999-6.685c-10.506 6.685-8.593 21.959-8.593 21.959s-19.1-4.731-25.774-11.916c-6.688-7.171-10.632-9.771-8.28 3.01 2.504 13.543 6.365 13.356 6.365 13.356l-14.002 0.646s19.1 12.411 22.914 13.366c3.819 0.955-9.549-2.866-11.455 3.812-1.916 6.693 11.133 9.23 18.776 9.23 7.637 0-15.601 7.639-24.979 9.547 0 0 77.489 17.188 66.026-46.78l9.554-1.904-5.734-4.452 5.734-5.099-9.553 1.91z" fill="#00B5E1"/>
<polygon points="53.157 524.07 31.596 530.38 36.387 534.8 18.38 552.76 4.646 538.92 -9 552.48 -9 568.06 4.56 555.07 18.434 569.05 44.514 542.28 49.475 546.85" fill="#00B5E1"/>
<g fill="#00B5E1">
	<path d="m37.352 618.86h-36.286c-5.636 0-10.206 4.566-10.206 10.206v7.26h17.34s4.331-5.408 11.77-5.408 12.092 5.408 12.092 5.408h15.495v-7.26c0-5.636-4.571-10.206-10.205-10.206zm2.994 12.417c0 0.939-0.765 1.706-1.707 1.706h-6.229c-0.942 0-1.707-0.767-1.707-1.706v-6.23c0-0.939 0.765-1.707 1.707-1.707h6.229c0.942 0 1.707 0.768 1.707 1.707v6.23z"/>
	<circle cx="20.166" cy="647.32" r="12.613"/>
	<path d="m34.822 639.99c1.104 2.205 1.729 4.691 1.729 7.33 0 9.051-7.337 16.388-16.387 16.388-9.051 0-16.387-7.337-16.387-16.388 0-2.639 0.626-5.125 1.732-7.33h-14.649v25.048c0 5.636 4.569 10.205 10.206 10.205h36.286c5.637 0 10.205-4.569 10.205-10.205v-25.048h-12.735z"/>
</g>
<g fill="#DEB209">
	<path d="m13.635 728.24c-17.467 0-20.354 15.729-14.941 23.852 5.415 8.124 6.317 13.047 6.498 14.194s0.181 2.771 1.444 2.771h7.108"/>
	<path d="m13.313 728.24c17.468 0 20.356 15.729 14.941 23.852-5.415 8.124-6.317 13.047-6.498 14.194s-0.181 2.771-1.444 2.771h-7.106"/>
	<path d="m21.436 773.12c0 0.848-0.687 1.535-1.535 1.535h-13.175c-0.848 0-1.534-0.688-1.534-1.535s0.687-1.533 1.534-1.533h13.175c0.848 0 1.535 0.686 1.535 1.533z"/>
	<path d="m21.436 777.91c0 0.847-0.687 1.533-1.535 1.533h-13.175c-0.848 0-1.534-0.688-1.534-1.533 0-0.849 0.687-1.534 1.534-1.534h13.175c0.848 0 1.535 0.685 1.535 1.534z"/>
	<path d="m19.289 782.72c0 0.85-0.688 1.535-1.535 1.535h-8.881c-0.847 0-1.534-0.688-1.534-1.535s0.687-1.533 1.534-1.533h8.881c0.847 0 1.535 0.686 1.535 1.533z"/>
	<path d="m51.162 747.12c0 1.648-1.338 2.987-2.988 2.987h-11.204c-1.65 0-2.988-1.339-2.988-2.987 0-1.65 1.338-2.988 2.988-2.988h11.204c1.65 0 2.988 1.338 2.988 2.988z"/>
	<path d="m42.605 717.94c1.098 1.23 0.986 3.119-0.244 4.219l-8.365 7.453c-1.231 1.097-3.121 0.986-4.219-0.244-1.098-1.232-0.989-3.121 0.243-4.219l8.365-7.453c1.233-1.097 3.122-0.988 4.22 0.244z"/>
	<path d="m-24.187 747.12c0 1.648 1.338 2.987 2.988 2.987h11.203c1.65 0 2.988-1.339 2.988-2.987 0-1.65-1.338-2.988-2.988-2.988h-11.203c-1.65 0-2.988 1.338-2.988 2.988z"/>
	<path d="m-15.63 717.94c-1.098 1.23-0.988 3.119 0.244 4.219l8.365 7.453c1.231 1.097 3.121 0.986 4.219-0.244 1.098-1.232 0.988-3.121-0.243-4.219l-8.365-7.453c-1.233-1.097-3.122-0.988-4.22 0.244z"/>
	<path d="m13.347 706.94c1.65 6e-3 2.983 1.349 2.977 2.999l-0.041 11.204c-6e-3 1.647-1.349 2.98-3 2.977-1.65-6e-3 -2.983-1.349-2.978-2.999l0.041-11.203c7e-3 -1.65 1.349-2.983 3.001-2.978z"/>
</g>
<path d="m14.53 822.16l-28.489 52.226h60.329l-31.84-52.226zm0.69 45.978c-2.202 0-3.986-1.796-3.986-4.011 0-2.216 1.784-4.012 3.986-4.012s3.986 1.796 3.986 4.012c0 2.215-1.784 4.011-3.986 4.011zm1.875-10.416h-3.75l-2.301-10.986v-4.964h8.354v4.964l-2.303 10.986z" fill="#EB8B23"/>
		<path d="m-16.312 497.04l-0.508-2.997c-0.048-0.284-4.664-28.799 9.907-56.182 5.745-10.796 16.185-18.506 31.031-22.915 11.575-3.438 22.25-3.705 25.247-3.705 0.564 0 0.867 9e-3 0.867 9e-3l1.352 0.041-4.246 6.368 12.443-2.818v0.939c0 6.862-5.447 14.326-6.891 16.183l5.143 9.781 0.25 8.448 9.033 21.42-3.066 1.395c-1.295 7.625-10.135 15.584-10.517 15.925l-0.252 0.225-0.335-0.039c-10.4-1.229-17.58-4.623-21.337-10.088-3.577-5.201-2.798-10.51-2.549-11.752-0.731-0.854-6.403-3.117-9.606-3.363-2.883-0.222-5.852-2.358-6.871-3.158-19.82 8.509-28.069 33.145-28.15 33.395l-0.945 2.888zm65.124-84.296c-3.548 0.035-13.511 0.445-24.267 3.64-14.446 4.291-24.585 11.754-30.133 22.182-11.601 21.801-10.838 44.331-10.104 52.257 2.904-6.97 11.715-24.744 28.312-31.625l0.425-0.177 0.35 0.3c0.033 0.028 3.387 2.868 6.375 3.098 1.599 0.123 4.155 0.785 6.511 1.687 4.235 1.619 4.435 2.619 4.5 2.947l0.033 0.166-0.041 0.164c-0.014 0.056-1.334 5.577 2.288 10.821 3.467 5.021 10.167 8.177 19.919 9.383 1.464-1.367 8.975-8.67 9.845-15.193l0.056-0.411 2.486-1.131-8.611-20.42-0.262-8.319-5.441-10.26 0.342-0.417c0.066-0.08 6.306-7.741 6.85-14.708l-14.236 3.224 4.803-7.208z" fill="#002855"/>
	<g fill="#002855">
		<path d="m52.193 483.95c-0.062 0.035-0.1 0.057-0.1 0.057s1.404 0.438 0.1-0.057z"/>
		<path d="m54.523 452.06l-0.27-9.367-6.615-11.611s4.687-5.781 6.209-10.125l-13.904 2.025 3.645-7.426s-36.856 1.35-47.656 28.351c0 0 5.265-8.64 14.851-14.175 0 0-18.496 18.63-23.761 48.736 0 0 7.831-17.01 27.001-24.165 0 0 4.185 4.59 10.732 5.67s9.248 6.209 9.383 7.02c0 0-3.233 9.497 9.45 13.906 5.316 1.849 7.665 2.69 8.605 3.048 0.847-0.488 7.082-4.383 7.46-13.443l2.709-1.083c0-1e-3 -3.924-11.504-7.839-17.361zm-5.535-28.404l-2.768 4.466-2.768-3.251 5.536-1.215zm4.995 54.677c-2.295 4.32-8.775-1.215-8.775-1.215-12.098-1.561-7.021-11.206-7.021-11.206l-5.94-5.535 5.94-2.295c-16.335-1.215-21.195-3.645-22.41-12.15s6.075-14.851 6.075-14.851c-9.18 2.699-10.666 16.741-10.666 16.741l-11.88 11.07c9.585-38.881 37.261-39.557 37.261-39.557-5.711 3.694-4.455 11.341-4.455 11.341s2.565-2.7 5.265-1.645 7.425 12.039 7.425 12.039c0.945-0.271 1.418-5.535 1.418-5.535l5.197 7.966 0.405 8.558c1.08 1.808 6.886 16.013 6.886 16.013l-1.891 0.405c0.947 3.51-0.539 5.536-2.834 9.856z"/>
	</g>
	<polygon points="45.613 467.13 48.988 468.48 48.988 473.2" fill="#002855"/>
	<path d="m39.133 448.23c-2.16-4.051-10.8-12.825-10.8-12.825l5.265 8.777c-1.485 4.727 2.835 5.533 3.645 5.69s2.025 3.087 2.025 3.087l1.351-6.079-1.486 1.35zm-2.835 0.202c-0.41 0-0.743-0.332-0.743-0.742s0.333-0.742 0.743-0.742 0.742 0.332 0.742 0.742-0.332 0.742-0.742 0.742z" fill="#002855"/>
</svg>
