<?xml version="1.0" encoding="UTF-8"?>
<!DOCTYPE svg  PUBLIC '-//W3C//DTD SVG 1.1//EN'  'http://www.w3.org/Graphics/SVG/1.1/DTD/svg11.dtd'>
<svg enable-background="new 0 0 100 100" version="1.1" viewBox="0 0 100 100" xml:space="preserve" xmlns="http://www.w3.org/2000/svg">
	<path d="m38.85 26.142c-7.932 7.928-7.932 20.782 0 28.712 7.931 7.929 20.785 7.929 28.716 0 7.928-7.927 7.928-20.784 0-28.712-7.931-7.932-20.788-7.932-28.716 0zm23.898 23.9c-5.27 5.272-13.817 5.272-19.083 0-5.276-5.272-5.276-13.82-3e-3 -19.09 5.269-5.271 13.814-5.271 19.086 0 5.272 5.273 5.272 13.818 0 19.09zm-23.291 4.812l-11.077 24.954h49.901l-11.422-24.954-5.297 4.149 6.428 15.16-29.319-0.203 5.987-15.041" fill="#335379"/>
</svg>
